<?xml version="1.0" encoding="utf-8"?>
<!-- Generator: Adobe Illustrator 16.0.0, SVG Export Plug-In . SVG Version: 6.00 Build 0)  -->
<!DOCTYPE svg PUBLIC "-//W3C//DTD SVG 1.1//EN" "http://www.w3.org/Graphics/SVG/1.1/DTD/svg11.dtd">
<svg version="1.1"
	 id="svg50" xmlns:svg="http://www.w3.org/2000/svg" xmlns:cc="http://creativecommons.org/ns#" xmlns:dc="http://purl.org/dc/elements/1.1/" xmlns:rdf="http://www.w3.org/1999/02/22-rdf-syntax-ns#"
	 xmlns="http://www.w3.org/2000/svg" xmlns:xlink="http://www.w3.org/1999/xlink" x="0px" y="0px" width="800px" height="292px"
	 viewBox="9.5 0 800 292" enable-background="new 9.5 0 800 292" xml:space="preserve">
<g id="Layer1000">
	<path id="path2" fill="#2D4F8F" d="M234.702,80.811v123.945c0,0,28.173-0.625,31.381-26.637v-18.354
		c79.181,14.391,80.71-73.718,28.592-78.562C259.527,80.545,234.702,80.811,234.702,80.811z M265.802,107.614h21.232
		c6.809,0,12.378,5.268,12.378,11.704v2.603c0,6.438-5.57,11.705-12.378,11.705h-21.232V107.614L265.802,107.614z"/>
	
		<linearGradient id="path16_1_" gradientUnits="userSpaceOnUse" x1="-168.5911" y1="705.5" x2="-168.5911" y2="704.3251" gradientTransform="matrix(99.414 117.2043 62.1208 -187.5661 -26436.3047 152106.875)">
		<stop  offset="0" style="stop-color:#1C4E82"/>
		<stop  offset="0.42" style="stop-color:#009EE0"/>
		<stop  offset="0.8" style="stop-color:#009EE0"/>
		<stop  offset="1" style="stop-color:#FFFFFF"/>
	</linearGradient>
	<path id="path16" fill="url(#path16_1_)" d="M584.891,249.409c-38.447-24.484-63.744-66.021-63.744-113.136
		c0-65.444,48.807-120.129,113.873-133.294c6.48-1.313,11.277-1.749,17.387,1.557c8.688,4.7,11.393,15.268-1.646,36.727
		c-17.217,28.338-45.559,76.564-45.559,76.564s-14.92,20.643,11.643,20.815c26.564,0.171,37.662,0,37.662,0
		s14.738-1.548,7.279,15.14c-7.461,16.684-36.875,85.422-36.875,85.422s-4.391,14.926-20.992,17.266
		C596.164,257.561,591.156,253.398,584.891,249.409L584.891,249.409z"/>
	
		<linearGradient id="path32_1_" gradientUnits="userSpaceOnUse" x1="-170.5632" y1="707.8555" x2="-170.5632" y2="706.6926" gradientTransform="matrix(127.4534 -109.9234 -73.5853 -190.393 74492.5781 116067.5391)">
		<stop  offset="0" style="stop-color:#01773A"/>
		<stop  offset="0.44" style="stop-color:#B1C900"/>
		<stop  offset="0.6" style="stop-color:#E7DB00"/>
		<stop  offset="0.99" style="stop-color:#FFFFFF"/>
		<stop  offset="1" style="stop-color:#FFFFFF"/>
	</linearGradient>
	<path id="path32" fill="url(#path32_1_)" d="M744.889,22.59C783.824,47.002,809.5,88.805,809.5,136.273
		c0,75.276-64.563,136.322-144.178,136.322c-5.756,0-11.432-0.327-17.01-0.948c-11.951-2.396-25.199-8.927-13.455-26.69
		c19.104-28.901,82.166-121.074,82.166-121.074s12.686-20.385-16.111-20.782c-12.125-0.167-20.406,0.009-27.748-0.089
		c-8.41-0.114-11.844-2.621-8.91-7.449c0.082-0.137,0.17-0.275,0.264-0.417c13.449-20.367,32.738-46.983,46.463-64.743
		C718.42,20.77,734.151,15.855,744.889,22.59L744.889,22.59z"/>
	<path id="path34" fill="#2D4F8F" d="M101.635,204.596h32.768c0,0,1.82-123.93,0-123.93c-1.819,0-32.403,0-32.403,0l-28.396,52.67
		l-28.399-52.67c0,0-25.663,0-32.403,0c-0.45,3.938-0.359,61.267-0.338,97.646c0.001,2.063,4.96,26.281,33.105,26.281
		c-0.049,0-0.049-57.535-0.049-57.535l18.558,29.416H83.13l18.559-29.416C101.685,147.061,101.685,204.596,101.635,204.596z"/>
	<path id="path36" fill="#2D4F8F" d="M140.132,204.68c0-0.174,0-95.1,0-95.1s0.754-28.922,30.956-28.922c30.201,0,57.856,0,57.856,0
		v27.178h-55.862v20.381h47.677v26.225h-47.606v21.978h56.618v28.258C214.879,204.704,140.132,204.842,140.132,204.68
		L140.132,204.68z"/>
	<path id="path38" fill="#2D4F8F" d="M303.541,209.116h34.751l26.383-74.83l10.733,30.621h-17.829c0,0-1.457,26.661,26.746,26.661
		l4.901,17.3h34.581L375.949,84.877h-23.444L303.541,209.116z"/>
	<path id="path40" fill="#2D4F8F" d="M471.629,113.026l20.451-19.337c0,0-43.531-31.438-79.193-2.882
		c0,0-13.644,10.15-12.552,28.212c1.091,18.063,14.736,33.204,32.929,34.922c18.195,1.72,29.658,3.439,29.842,13.935
		c0.182,10.492-30.748,14.795-46.76,2.408l22.195,59.006c0,0,25.473-2.408,23.107-26.322c0,0,34.736-4.567,32.553-44.155
		c0,0-4.006-31.67-42.234-29.604c0,0-21.795,0.823-21.064-13.455C431.627,101.473,460.194,101.989,471.629,113.026L471.629,113.026z
		"/>
</g>
</svg>
